<svg width="24" height="24" viewBox="0 0 24 24" fill="none" xmlns="http://www.w3.org/2000/svg">
<g clip-path="url(#clip0)">
<path d="M22.9999 12C23.0043 11.8205 23.7522 11.6468 23.5141 11.5591L1.13843 3.31717C0.753501 3.17529 0.323036 3.47491 0.456194 3.79179L3.99994 12L22.9999 12Z" fill="#4082BC"/>
<path d="M2.14468 5.11097C2.01152 4.79408 2.44199 4.49446 2.82677 4.63622L22.9999 12L23.9999 12.0193C24.0042 11.8398 23.7522 11.6468 23.514 11.5591L1.13841 3.31716C0.753478 3.17529 0.323014 3.4749 0.456172 3.79179L3.99994 12H4.99994L2.14468 5.11097Z" fill="#4082BC"/>
<path d="M23 12C23.0043 12.1795 23.7523 12.4474 23.5141 12.5351L1.13852 20.777C0.753583 20.9189 0.323118 20.6193 0.456276 20.3024L4 12L23 12Z" fill="#4082BC"/>
<path d="M2.14474 18.9832C2.01158 19.3001 2.44205 19.5997 2.82683 19.458L23 12L24 12C24.0043 12.1795 23.7522 12.4474 23.5141 12.5351L1.13847 20.777C0.753537 20.9189 0.323072 20.6193 0.45623 20.3024L3.99994 12H4.99994L2.14474 18.9832Z" fill="#4082BC"/>
</g>
<defs>
<clipPath id="clip0">
<rect width="24" height="24" fill="white"/>
</clipPath>
</defs>
</svg>
