<svg width="22" height="24" viewBox="0 0 22 24" fill="none" xmlns="http://www.w3.org/2000/svg">
<path d="M1.64201 22.6569C-0.147888 20.867 -0.149725 17.9544 1.64201 16.1637L12.0297 5.77514C12.5462 5.25323 13.2394 4.9645 13.9774 4.96272C15.4525 4.95825 16.7421 6.24862 16.7384 7.72372C16.7367 8.46165 16.4479 9.15401 15.9224 9.67402L6.83586 18.7615C6.47619 19.1202 5.89609 19.1202 5.5374 18.7615C5.17871 18.4028 5.17871 17.8217 5.5374 17.4631L14.6276 8.37292C14.8051 8.19627 14.9011 7.9658 14.9019 7.71919C14.9019 7.22775 14.4733 6.79916 13.9819 6.79916C13.7353 6.80008 13.5048 6.89604 13.3318 7.07085L2.94047 17.4631C1.8644 18.5364 1.8644 20.2841 2.94047 21.3584C4.01299 22.4327 5.76156 22.4327 6.83586 21.3584L18.5229 9.67138C20.3128 7.88149 20.3128 4.96806 18.5229 3.17817C16.733 1.38827 13.8196 1.38827 12.0297 3.17817L2.94047 12.2684C2.58178 12.627 2.0007 12.627 1.64201 12.2684C1.28332 11.9097 1.28332 11.3286 1.64201 10.9699L10.7312 1.87977C13.2376 -0.626589 17.3158 -0.626589 19.8214 1.87977C22.3278 4.3852 22.3278 8.46354 19.8214 10.9699L8.13432 22.6569C6.34356 24.4477 3.43191 24.4477 1.64201 22.6569Z" fill="#6C7883"/>
</svg>
